<svg width="128" height="128" viewBox="0 0 128 128" fill="none" xmlns="http://www.w3.org/2000/svg">
<rect width="128" height="128" rx="64" fill="#E5483D"/>
<path d="M37.6381 76.0186C40.2666 72.8586 46.3864 69.7902 52.6963 73.9968L53.6284 74.6207C55.6259 75.9635 57.8296 77.4774 59.7067 78.7759C59.7242 78.5408 59.7334 78.303 59.7334 78.063V59.2001L33.7069 39.6802C31.8218 38.2664 31.4397 35.592 32.8536 33.7069C34.2674 31.8218 36.9417 31.4397 38.8269 32.8536L64 51.7335L89.1731 32.8536C91.0583 31.4397 93.7326 31.8218 95.1464 33.7069C96.5603 35.592 96.1782 38.2664 94.2931 39.6802L68.2666 59.2001V78.063C68.2666 79.9907 67.9607 81.8508 67.3954 83.5953L70.2308 85.1148C74.7981 87.083 78.1308 86.7096 80.8161 85.2257C82.1997 84.461 83.1882 83.4443 83.8361 82.5963C84.1563 82.1772 84.3788 81.8182 84.5113 81.5853C84.5771 81.4697 84.6192 81.3879 84.6388 81.3486C84.6458 81.3345 84.6498 81.326 84.6509 81.3236C84.6501 81.3253 84.648 81.3301 84.6444 81.338C84.6426 81.3419 84.6404 81.3466 84.638 81.3521C84.6367 81.3549 84.6354 81.3579 84.634 81.3611C85.5885 79.2122 88.1029 78.24 90.2554 79.1896C92.4113 80.1408 93.388 82.6598 92.4369 84.8157L88.5219 83.0884C88.5256 83.09 88.5294 83.0917 88.5331 83.0934C92.4368 84.8156 92.4362 84.817 92.4356 84.8184C92.4354 84.8189 92.4348 84.8201 92.4344 84.8211C92.4335 84.823 92.4326 84.8251 92.4317 84.8271C92.4299 84.8312 92.428 84.8355 92.426 84.84C92.422 84.8491 92.4174 84.859 92.4125 84.8698C92.4026 84.8916 92.391 84.9169 92.3775 84.9457C92.3505 85.0032 92.3161 85.0746 92.2742 85.1586C92.1904 85.3264 92.0759 85.5454 91.9283 85.8048C91.6342 86.3219 91.2033 87.0096 90.6169 87.7771C89.4515 89.3024 87.6133 91.219 84.9436 92.6944C79.6343 95.6285 73.5335 95.7959 66.9708 93.0019L66.6579 92.8667C66.5561 92.822 66.4561 92.7732 66.3581 92.7206L62.8929 90.8638C59.6601 94.0364 55.2251 96 50.3297 96H49.0657C46.7452 96 44.4654 95.3892 42.4558 94.229V94.2288L42.2114 94.0877C39.4322 92.4831 37.179 89.7047 36.0767 86.6552C34.9556 83.5539 34.8436 79.5253 37.5156 76.1692L37.6381 76.0186ZM47.963 81.0967C46.9545 80.4244 46.215 80.4364 45.6858 80.5657C45.0537 80.7201 44.5198 81.1079 44.2433 81.4223L44.1914 81.4842C43.8903 81.8624 43.664 82.5431 44.1018 83.7542C44.5584 85.0172 45.5373 86.1546 46.4781 86.6977L46.7226 86.8388H46.7224C47.4349 87.2501 48.2431 87.4667 49.0657 87.4667H50.3297C52.1355 87.4667 53.8233 86.9584 55.2576 86.0742C53.3084 84.7242 50.9645 83.1122 48.8714 81.7051L47.963 81.0967Z" fill="white"/>
</svg>
