<svg width="58" height="58" viewBox="0 0 58 58" fill="none" xmlns="http://www.w3.org/2000/svg">
<path d="M4 4L29 22.75M29 22.75L54 4M29 22.75V41.677C29 44.1317 28.2823 46.4188 27.0452 48.3398M27.0452 48.3398L15.9928 43.4868C14.3618 42.7706 12.4783 42.9352 10.9962 43.9232C7.7743 46.0711 7.92841 50.8554 11.2818 52.7915L11.5022 52.9187C12.7291 53.6271 14.1208 54 15.5376 54H16.677C21.0281 54 24.8525 51.745 27.0452 48.3398ZM27.0452 48.3398L31.8825 50.4639C36.9856 52.7046 42.8211 52.559 47.8061 50.0665L49.3125 49.3133" stroke="#DD6464" stroke-width="6.73077" stroke-linecap="round" stroke-linejoin="round"/>
</svg>
