<svg width="64" height="64" viewBox="0 0 64 64" fill="none" xmlns="http://www.w3.org/2000/svg">
<path d="M5.63812 44.0186C8.26659 40.8586 14.3864 37.7902 20.6963 41.9967L21.6284 42.6207C23.6259 43.9635 25.8296 45.4774 27.7067 46.7759C27.7242 46.5408 27.7334 46.303 27.7334 46.063V27.2001L1.7069 7.68022C-0.178213 6.26638 -0.56026 3.59204 0.853578 1.70691C2.26742 -0.178214 4.94175 -0.560262 6.82686 0.853581L32 19.7335L57.1731 0.853581C59.0583 -0.560262 61.7326 -0.178214 63.1464 1.70691C64.5603 3.59204 64.1782 6.26638 62.2931 7.68022L36.2666 27.2001V46.063C36.2666 47.9907 35.9606 49.8508 35.3954 51.5953L38.2308 53.1148C42.7981 55.083 46.1308 54.7096 48.8161 53.2257C50.1997 52.461 51.1882 51.4443 51.8361 50.5963C52.1563 50.1772 52.3788 49.8182 52.5113 49.5853C52.577 49.4697 52.6192 49.3879 52.6388 49.3486C52.6458 49.3345 52.6498 49.326 52.6509 49.3236C52.6509 49.3236 52.648 49.3301 52.6444 49.338C52.6426 49.3419 52.6404 49.3466 52.638 49.3521C52.6367 49.3549 52.6354 49.3579 52.634 49.3611C53.5885 47.2122 56.1029 46.24 58.2554 47.1896C60.4113 48.1408 61.388 50.6598 60.4369 52.8157L56.5219 51.0884L56.5331 51.0934C60.4368 52.8156 60.4356 52.8184 60.4356 52.8184L60.4344 52.8211C60.4335 52.823 60.4326 52.8251 60.4316 52.8271C60.4299 52.8312 60.428 52.8355 60.426 52.84C60.422 52.8491 60.4174 52.859 60.4125 52.8698C60.4026 52.8916 60.391 52.9169 60.3775 52.9457C60.3505 53.0032 60.3161 53.0746 60.2742 53.1586C60.1904 53.3264 60.0759 53.5454 59.9283 53.8048C59.6342 54.3219 59.2033 55.0096 58.6169 55.7771C57.4515 57.3024 55.6133 59.219 52.9436 60.6944C47.6343 63.6285 41.5335 63.7959 34.9708 61.0019L34.6579 60.8667C34.5561 60.822 34.4561 60.7732 34.3581 60.7206L30.8929 58.8638C27.6601 62.0364 23.2251 64 18.3297 64H17.0657C14.7452 64 12.4654 63.3892 10.4558 62.229L10.2114 62.0877C7.43223 60.4831 5.17902 57.7047 4.07668 54.6552C2.95557 51.5539 2.84365 47.5253 5.51562 44.1692L5.63812 44.0186ZM15.963 49.0967C14.9545 48.4244 14.215 48.4364 13.6858 48.5657C13.0537 48.7201 12.5198 49.1079 12.2433 49.4223L12.1914 49.4842C11.8903 49.8624 11.664 50.5431 12.1018 51.7542C12.5584 53.0172 13.5373 54.1546 14.4781 54.6977L14.7226 54.8388C15.4351 55.2501 16.2431 55.4667 17.0657 55.4667H18.3297C20.1355 55.4667 21.8233 54.9584 23.2576 54.0742C21.3084 52.7242 18.9645 51.1122 16.8714 49.7051L15.963 49.0967Z" fill="#E5483D"/>
</svg>
