<svg width="128" height="128" viewBox="0 0 128 128" fill="none" xmlns="http://www.w3.org/2000/svg">
<rect width="128" height="128" rx="64" fill="#DD6464"/>
<path d="M38 38L64 57.5M64 57.5L90 38M64 57.5V77.184C64 79.737 63.2536 82.1155 61.967 84.1134M61.967 84.1134L50.4725 79.0663C48.7763 78.3215 46.8174 78.4926 45.276 79.5202C41.9253 81.754 42.0855 86.7296 45.5731 88.7432L45.8022 88.8755C47.0782 89.6122 48.5257 90 49.9991 90H51.184C55.7092 90 59.6866 87.6548 61.967 84.1134ZM61.967 84.1134L66.9978 86.3224C72.305 88.6528 78.3739 88.5013 83.5583 85.9091L85.125 85.1258" stroke="white" stroke-width="7" stroke-linecap="round" stroke-linejoin="round"/>
</svg>
